<svg width="338" height="114" viewBox="0 0 338 114" fill="none" xmlns="http://www.w3.org/2000/svg">
<g clip-path="url(#clip0_121_137)">
<path fill-rule="evenodd" clip-rule="evenodd" d="M214.375 57C214.375 82.0599 194.06 102.375 169 102.375C143.94 102.375 123.625 82.0599 123.625 57C123.625 31.9401 143.94 11.625 169 11.625C194.06 11.625 214.375 31.9401 214.375 57ZM174.042 36.8333C174.042 39.6178 171.784 41.875 169 41.875C166.216 41.875 163.958 39.6178 163.958 36.8333C163.958 34.0489 166.216 31.7917 169 31.7917C171.784 31.7917 174.042 34.0489 174.042 36.8333ZM174.042 82.2083V51.9583H163.958V82.2083H174.042Z" fill="#F9F871"/>
<path d="M174.042 51.9583H176.042V49.9583H174.042V51.9583ZM174.042 82.2083V84.2083H176.042V82.2083H174.042ZM163.958 51.9583V49.9583H161.958V51.9583H163.958ZM163.958 82.2083H161.958V84.2083H163.958V82.2083ZM169 104.375C195.164 104.375 216.375 83.1645 216.375 57H212.375C212.375 80.9554 192.955 100.375 169 100.375V104.375ZM121.625 57C121.625 83.1645 142.836 104.375 169 104.375V100.375C145.045 100.375 125.625 80.9554 125.625 57H121.625ZM169 9.625C142.836 9.625 121.625 30.8355 121.625 57H125.625C125.625 33.0446 145.045 13.625 169 13.625V9.625ZM216.375 57C216.375 30.8355 195.164 9.625 169 9.625V13.625C192.955 13.625 212.375 33.0446 212.375 57H216.375ZM169 43.875C172.889 43.875 176.042 40.7223 176.042 36.8333H172.042C172.042 38.5132 170.68 39.875 169 39.875V43.875ZM161.958 36.8333C161.958 40.7223 165.111 43.875 169 43.875V39.875C167.32 39.875 165.958 38.5132 165.958 36.8333H161.958ZM169 29.7917C165.111 29.7917 161.958 32.9443 161.958 36.8333H165.958C165.958 35.1535 167.32 33.7917 169 33.7917V29.7917ZM176.042 36.8333C176.042 32.9443 172.889 29.7917 169 29.7917V33.7917C170.68 33.7917 172.042 35.1535 172.042 36.8333H176.042ZM172.042 51.9583V82.2083H176.042V51.9583H172.042ZM163.958 53.9583H174.042V49.9583H163.958V53.9583ZM165.958 82.2083V51.9583H161.958V82.2083H165.958ZM174.042 80.2083H163.958V84.2083H174.042V80.2083Z" fill="#204C6F"/>
</g>
<defs>
<clipPath id="clip0_121_137">
<rect x="0.5" width="337" height="114" rx="18.6357" fill="white"/>
</clipPath>
</defs>
</svg>
